<?xml version="1.0" encoding="UTF-8"?>
<svg id="Layer_2" data-name="Layer 2" xmlns="http://www.w3.org/2000/svg" viewBox="0 0 64.59 64.58">
  <defs>
    <style>
      .cls-1 {
        fill: #402a59;
      }

      .cls-1, .cls-2 {
        stroke-width: 0px;
      }

      .cls-2 {
        fill: #fff;
      }
    </style>
  </defs>
  <g id="Layer_1-2" data-name="Layer 1">
    <g>
      <path class="cls-1" d="M9.67,0h45.5c5.15.8,8.55,3.84,9.42,9.04v46.62c-.68,4.74-4.54,8.17-9.23,8.67-7.46.79-35-.66-45.32,0-4.41.01-9.15-3.13-9.79-7.74C-.08,54.19-.09,10.34.25,7.93.85,3.67,5.53.25,9.67,0Z"/>
      <g>
        <path class="cls-2" d="M10.23,5.78c2.18-.31,41.83-.3,44.01,0,2.16.3,3.95,1.73,4.57,3.82-.42,7.62.55,42.01,0,45.32-.31,1.86-2.1,3.18-3.82,3.64-8.48-.57-40.42.87-44.94.19-1.93-.29-3.88-2.06-4.2-4.01-.36-2.21-.36-42.55,0-44.76.34-2.09,2.28-3.9,4.38-4.2Z"/>
        <path class="cls-1" d="M49.58,19.02c12.99,16.71-3.23,39.83-23.5,34.31-1.23-.33-7.1-3.03-6.99-4.01l3.82-4.2c12.41,8.83,28.47-3.39,24.71-17.25-1.43-5.27-4.5-2.62,1.96-8.86Z"/>
        <path class="cls-1" d="M41.47,19.58c-14.38-9.66-31.48,6.73-22.56,21.26-.05,1.3-2.95,3.39-3.82,4.66C-.38,25.22,24.87.42,45.38,15.01c.07.33-3.36,4.18-3.92,4.57Z"/>
        <path class="cls-2" d="M41.47,19.58c-1.53,1.07-3-.63-4.94-1.12-6.42-1.61-13.36.89-16.88,6.62-1,1.62-1.52,3.48-2.24,5.22-.08.2-.42-.31-.56,0-.7,1.55.19,5.93.75,7.65.37,1.14,1.35,1.68,1.31,2.89-8.92-14.53,8.19-30.91,22.56-21.26Z"/>
        <g>
          <path class="cls-1" d="M34.47,24.62c3.51-.24,5.75,3,4.57,6.25-.37,1.03-6.01,7.08-6.99,7.74-4.39,2.93-8.02-.64-6.81-4.94.27-.96,6.57-8.86,9.23-9.04Z"/>
          <path class="cls-1" d="M35.22,25.92c1.76.07,2.93,2.01,2.7,3.64-.11.81-8.95,13.59-11.56,6.53-.75-2.49,6.93-10.24,8.86-10.16Z"/>
        </g>
      </g>
    </g>
  </g>
</svg>